<?xml version="1.0" standalone="no"?><!DOCTYPE svg PUBLIC "-//W3C//DTD SVG 1.1//EN" "http://www.w3.org/Graphics/SVG/1.1/DTD/svg11.dtd"><svg width="200" height="200" viewBox="0 0 200 200" version="1.1" xmlns="http://www.w3.org/2000/svg" xmlns:xlink="http://www.w3.org/1999/xlink"><defs><style type="text/css"><![CDATA[
@font-face { font-family: ifont; src: url("//at.alicdn.com/t/font_1442373896_4754455.eot?#iefix") format("embedded-opentype"), url("//at.alicdn.com/t/font_1442373896_4754455.woff") format("woff"), url("//at.alicdn.com/t/font_1442373896_4754455.ttf") format("truetype"), url("//at.alicdn.com/t/font_1442373896_4754455.svg#ifont") format("svg"); }

]]></style></defs><g class="transform-group"><g transform="scale(0.1953125, 0.1953125)"><path d="M928 191.997 96 191.997c-8.837 0-16 7.163-16 16l0 32.004c0 8.835 7.163 15.998 16 15.998l832 0c8.837 0 16-7.163 16-15.998l0-32.004C944 199.161 936.837 191.997 928 191.997zM928 479.997 96 479.997c-8.837 0-16 7.163-16 16l0 32.004c0 8.835 7.163 15.998 16 15.998l832 0c8.837 0 16-7.163 16-15.998l0-32.004C944 487.161 936.837 479.997 928 479.997zM928 768.997 96 768.997c-8.837 0-16 7.163-16 16l0 32.004c0 8.835 7.163 15.998 16 15.998l832 0c8.837 0 16-7.163 16-15.998l0-32.004C944 776.161 936.837 768.997 928 768.997z" fill="#272636"></path></g></g></svg>